# xmcd
#
# Track frame offsets: 
#        182
#        11425
#        22517
#        33627
#        45100
#        60872
#        69395
#        79792
#        92225
#        103250
#        113805
#        124335
#        134825
#        146285
#        157472
#        167910
#        178102
#        191575
#        203462
#        216100
#        228792
#        240182
#        251615
#        264012
#        271285
#
# Disc length: 3754 seconds
#
# Revision: 5
# Processed by: cddbd v1.5.2PL0 Copyright (c) Steve Scherf et al.
# Submitted via: ExactAudioCopyFreeDBPlugin 1.0
#
DISCID=4b0ea819
DTITLE=Various Artist - The Doo Wop Boxes I, II, and III [Rhino box set
DTITLE=s]
DYEAR=1996
DGENRE=Rhythm and Blues
TTITLE0=The Chimes - Once in Awhile
TTITLE1=The Starlites - Valarie
TTITLE2=The Pentagons - To Be Loved (Forever)
TTITLE3=The Timetones - In My Heart
TTITLE4=Little Caesar and The Romans - Those Oldies But Goodies (Remind 
TTITLE4=Me of You)
TTITLE5=The Cleftones - Heart and Soul
TTITLE6=The Blue Jays - Lover's Island
TTITLE7=Curtis Lee - Pretty Little Angel Eyes
TTITLE8=The Dreamlovers - When We Get Married
TTITLE9=The Regents - Runaround
TTITLE10=The Chantels - Look in My Eyes
TTITLE11=The Stereos - I Really Love You
TTITLE12=The Marcels - Heartaches
TTITLE13=Gene Chandler - Duke of Earl
TTITLE14=The Devotions - Rip Van Winkle
TTITLE15=Don and Juan - What's Your Name
TTITLE16=The Falcons - I Found a Love
TTITLE17=The Volumes - I Love You
TTITLE18=The Duprees - You Belong to Me
TTITLE19=The Jive Five - What Time is It?
TTITLE20=The Delcos - Arabia
TTITLE21=Anthony and The Sophomores - Play Those Oldies, Mr. Dee-Jay
TTITLE22=The Penguins - Memories of El Monte
TTITLE23=The Camelots - Don't Leave Me Baby
TTITLE24=The Classics - Till Then
EXTD=
EXTT0=The Chimes
EXTT1=Starlites
EXTT2=The Pentagons
EXTT3=The Timetones
EXTT4=Little Caesar and the Romans
EXTT5=The Cleftones
EXTT6=The Blue Jays
EXTT7=Curtis Lee
EXTT8=The Dreamlovers
EXTT9=The Regents
EXTT10=Curtis Lee
EXTT11=The Stereos
EXTT12=The Marcels
EXTT13=Gene Chandler
EXTT14=The Devotions
EXTT15=Don and Juan
EXTT16=The Falcons and Band (Ohio Untouchables)
EXTT17=The Volumes
EXTT18=The Duprees
EXTT19=Jive Five
EXTT20=The Delco's
EXTT21=Anthony and The Sophomores
EXTT22=The Penguins
EXTT23=The Camelots
EXTT24=The Classics
PLAYORDER=
